Release Info:

General
Format                                   : Matroska
Format version                           : Version 2
File size                                : 696 MiB
Duration                                 : 1h 27mn
Overall bit rate                         : 1 117 Kbps
Movie name                               : 2016.obamas.america

Video
ID                                       : 1
Format                                   : MPEG-4 Visual
Format profile                           : Simple@L3
Format settings, BVOP                    : Yes
Format settings, QPel                    : No
Format settings, GMC                     : No warppoints
Format settings, Matrix                  : Default (MPEG)
Codec ID                                 : V_MS/VFW/FOURCC / XVID
Codec ID/Hint                            : XviD
Duration                                 : 1h 27mn
Bit rate                                 : 957 Kbps
Width                                    : 640 pixels
Height                                   : 352 pixels
Display aspect ratio                     : 16:9
Frame rate mode                          : Constant
Frame rate                               : 23.976 fps
Color space                              : YUV
Chroma subsampling                       : 4:2:0
Bit depth                                : 8 bits
Scan type                                : Progressive
Compression mode                         : Lossy
Bits/(Pixel*Frame)                       : 0.177
Stream size                              : 601 MiB (86%)
Language                                 : English
Default                                  : Yes
Forced                                   : No

Audio
ID                                       : 2
Format                                   : MPEG Audio
Format version                           : Version 1
Format profile                           : Layer 3
Mode                                     : Joint stereo
Mode extension                           : MS Stereo
Muxing mode                              : Header stripping
Codec ID                                 : A_MPEG/L3
Codec ID/Hint                            : MP3
Duration                                 : 1h 27mn
Bit rate mode                            : Constant
Bit rate                                 : 128 Kbps
Channel(s)                               : 2 channels
Sampling rate                            : 44.1 KHz
Compression mode                         : Lossy
Stream size                              : 80.4 MiB (12%)
Language                                 : English
Default                                  : Yes
Forced                                   : No


Imdb info:

A documentary that examines the question, "If Barack Obama wins a second term, where will we be in 2016?"

Directors: Dinesh D'Souza, John Sullivan
Writers: Dinesh D'Souza, John Sullivan, Stars: Dinesh D'Souza, Dr. Alice Dewey and Willy Kauai 
 
http://www.imdb.com/title/tt2247692/

Genres: Documentary

Screen Shot:
 
http://www.shotpix.com/images/01753902403810475987.png 
http://www.shotpix.com/images/90693213780507244078.png 
http://www.shotpix.com/images/09435016942797382274.png 
http://www.shotpix.com/images/40165832171766568673.png 
http://www.shotpix.com/images/04626908357843942742.png 
http://www.shotpix.com/images/21333269146452587669.png 
http://www.shotpix.com/images/47472910719184081827.png 
http://www.shotpix.com/images/13609659630455963265.png